# xmcd
#
# Track frame offsets:
#	150
#	13450
#	22600
#	31250
#	43087
#	50562
#	64725
#	73600
#	80975
#	90375
#	102500
#	110450
#	120850
#	131375
#	141575
#	153887
#	163600
#	173712
#	183462
#	194462
#	206537
#	217075
#
# Disc length: 3033 seconds
#
# Revision: 0
# Processed by: cddbd v1.4PL0 Copyright (c) Steve Scherf et al.
# Submitted via: dBpowerAMP V4.0
#
DISCID=370bd716
DTITLE=Guitar - 22 Rocking Guitar Greats
DYEAR=1900
DGENRE=Country
TTITLE0=Atlantis
TTITLE1=Red River Rock
TTITLE2=Teen Beat
TTITLE3=Foot Tapper
TTITLE4=Torquay
TTITLE5=Guitar Tango
TTITLE6=White Rabbit
TTITLE7=36-24-36
TTITLE8=Peter Gunn
TTITLE9=Green Onions
TTITLE10=Woo Hoo 
TTITLE11=Quartermaster's Store
TTITLE12=Peace Pipe
TTITLE13=Mexico
TTITLE14=Memphis
TTITLE15=It's A Man's World
TTITLE16=Tequila
TTITLE17=Shindig
TTITLE18=Diamonds
TTITLE19=Last Night
TTITLE20=Pipeline
TTITLE21=Geronimo
EXTD=
EXTT0=
EXTT1=
EXTT2=
EXTT3=
EXTT4=
EXTT5=
EXTT6=
EXTT7=
EXTT8=
EXTT9=
EXTT10=
EXTT11=
EXTT12=
EXTT13=
EXTT14=
EXTT15=
EXTT16=
EXTT17=
EXTT18=
EXTT19=
EXTT20=
EXTT21=
PLAYORDER=
